<?xml version="1.0" encoding="UTF-8"?>
<svg id="Calque_1" data-name="Calque 1" xmlns="http://www.w3.org/2000/svg" viewBox="0 0 492.18 166.67">
  <defs>
    <style>
      .cls-1 {
        fill: #fff;
      }

      .cls-2 {
        fill: #e2011c;
      }

      .cls-3 {
        fill: #003189;
      }

      .cls-4 {
        fill: #7f7f7f;
      }
    </style>
  </defs>
  <path class="cls-1" d="m0,0h492.18v166.67H0V0Z"/>
  <path class="cls-2" d="m281.66,166.67l.73-1.94c1.27-3.5,2.58-6.15,4.46-9.07,2.02-3.11,6.42-7.65,8.27-8.54,2.27-1.08,5.08-1.46,8.54-1.15,2.98.27,12.15,1.77,15.84,2.6,2.81.63,6.92.69,8.86.13,3.73-1.1,5.94-3.19,6.98-6.65.81-2.65.81-5.08,0-6.67-1.12-2.17-.92-2.73,1.75-5.29,1.33-1.27,2.4-2.42,2.4-2.6,0-.87-1.81-4.29-2.29-4.29-.29-.02-.87-.31-1.27-.62l-.75-.62,1.6-.81c2.17-1.12,3.79-2.85,3.79-4.06,0-.52-.46-1.81-1.04-2.86-1.06-2-1.35-3.92-.73-5.06.38-.75,1.08-1.06,4.46-2.04,2.81-.83,3.85-1.65,4.25-3.46.35-1.56.17-2.56-.75-4.4-.77-1.5-5.67-9.07-7.11-10.9-1.92-2.48-4.27-6.75-4.96-9.06-.69-2.27-.69-2.4-.19-5.34,1.06-6.19.44-11.34-2.56-21.36-2.23-7.46-2.83-9.27-3.52-10.67-1.27-2.5-1.12-3.1,1.5-5.23,1.23-1,2.38-2.1,2.54-2.42.79-1.46-.08-4.27-1.58-5.08-.92-.5-1.46-.15-2.42,1.61-.71,1.31-1,1.58-1.77,1.58-1.27,0-1.48-.54-.67-1.61.94-1.27.87-1.5-.62-1.69-1.1-.15-1.67-.58-4.08-3.02-3.21-3.27-5.36-4.79-9.67-6.75-1.96-.92-2.65-1.35-1.92-1.21.62.1,2.79.29,4.84.37,5.92.31,7.38-.46,8.77-4.77.92-2.88,1.38-4.23-.77-6.27l-7.92-7.46h177.53v166.67h-210.52Z"/>
  <path class="cls-3" d="m130.26,166.67c-1.29-.13-2.4-.19-2.48-.27-.13-.13,1.31-1.08,7.98-5.13,2.13-1.31,3.02-2.02,2.71-2.17-.23-.13-2.1-.33-4.13-.44-3.02-.19-3.9-.15-4.79.27-.62.27-3,1-5.34,1.61-5.77,1.52-7.73,2.58-9.57,5.13l-.69,1H0V0h226.04l-4.38,2.86c-2.4,1.21-5.21,2.86-6.21,3.71-3.46,2.83-8.07,9.27-9.23,12.84-.42,1.31-.81,1.81-2.11,2.69-2,1.37-4.38,3.96-6.34,6.92-2.69,4-7.81,13.04-8.81,15.53-1.54,3.88-1.42,6.84.88,18.48,1.02,5.11,2.11,10.32,2.42,11.55.35,1.23.69,3.31.81,4.65.19,2.35.35,2.86,1.73,5.77.38.79.69,1.69.69,2s.27.73.63.96.63.73.63,1.19c0,.58.73,1.61,2.35,3.38,3.65,4.04,6.31,7.81,6.31,9,0,.98-1.44,1.23-3.77.65-2.69-.65-4.9-2.11-8.31-5.42-1.46-1.42-2.65-2.38-2.65-2.11,0,.23,1,1.56,2.21,2.92,2.42,2.69,2.79,3.42,2.29,4.4-.46.87-1.58,1.1-3.08.69-1.75-.48-2.77.17-2.48,1.63.17.88.13.96-.37.79-1-.38-3.15-.83-5.08-1.02-1.77-.19-1.92-.27-3-1.77-.81-1.15-1.42-1.67-2.29-1.9-3.17-.9-11.07-2.29-16.38-2.86-9.32-1.02-11.55-1.12-16.02-.58-3.44.42-4.38.65-6.27,1.61-3.31,1.69-9.07,7-9.07,8.36,0,.63,1.27.4,2.73-.48,4.38-2.73,19.48-6.59,26.88-6.88,3.65-.13,3.46.04-.94.83-1.21.21-4.1.96-6.4,1.63-2.31.69-6.27,1.75-8.82,2.35-2.56.62-5.44,1.38-6.4,1.73l-1.77.65,2.73.02c13.86.15,29.67,4.56,36.09,10.07,2.77,2.36,3.79,2.65,7.86,2.21,5.58-.58,12.79-3.23,15.96-5.88,1.37-1.15,2.5-1.61,2.5-1,0,1.04-1.83,6.67-2.61,8.07-.88,1.54-.92,1.77-.46,2.11.27.19.42.46.33.54-.1.12.12.27.48.4,1.04.33.79.65-.88,1.1-1.63.4-2.92,1.15-2.92,1.65,0,.15.23.31.5.31.81,0,.19.58-.88.81-.73.15-.88.29-.54.5.31.19.33.27.04.29-.23,0-.4.33-.4.71,0,.5-.29.88-.96,1.15-1.6.73-1.15,1.12,1.04.88,1.1-.08,1.79-.08,1.52.02s-2.06.9-4,1.81c-1.92.9-4.46,1.96-5.59,2.36-1.29.46-2.13.92-2.19,1.27-.12.54.48.52,2-.08.29-.1.52-.06.5.1,0,.13-3.33,2.08-7.4,4.29-4.08,2.19-7.88,4.46-8.46,5.04s-1.35,1.04-1.65,1.04c-.35,0-.77.38-.98.83-.63,1.37-.5,1.54.98,1.29,2.21-.38,3.21-.37,3.36.06.08.25-.13.4-.48.4s-.81.21-1.02.46c-.21.27-.77.5-1.25.58-.54.04-1.08.46-1.5,1.12-.35.56-.92,1.08-1.27,1.17s.15.1,1.12.04c14.4-1.08,17.07-1.6,22.88-4.56,4.96-2.52,10.11-6.25,13.77-10,1.04-1.08,2-1.96,2.15-1.96.5,0,.23,1.81-.5,3.38-1.27,2.73-3.96,5.25-9.42,8.88-2.77,1.85-5.75,3.58-6.63,3.86-2.75.87-7.19,1.79-11.84,2.46-15.17,2.21-20.96,3.86-26.7,7.67-.96.63-1.96,1.12-2.25,1.08-.27-.04-.98.35-1.6.87-1.73,1.48-.5,1.23,3.1-.62,3.67-1.9,5.4-2.21,2.5-.44-3.56,2.15-6.25,3.52-8.9,3.52h-14.25Zm-18.82-18.59c.58-.23,2.46-1.31,4.23-2.38,1.73-1.06,3.83-2.23,4.61-2.58.81-.37,3.04-1.38,4.96-2.25,4.06-1.83,10.02-3.56,10.34-3.02.13.19,1.02.42,2,.5,1.35.08,1.58.15,1.02.37-.4.13-.71.38-.71.54,0,.58,3,.4,4.25-.25.48-.27,1.6-.54,2.48-.65,1.08-.12,1.58-.35,1.58-.65,0-.37.27-.42,1.27-.25,1.35.23,4.23-.33,12.02-2.29,5.29-1.31,9.29-2.65,12.79-4.27l2.54-1.15-2.54-1.63c-6.19-3.98-12.42-6.42-26.07-10.23-2.38-.67-4.46-1.37-4.63-1.52-.21-.23-.1-.25.33-.1,1.35.48,2.38.58,2.38.21,0-.46-1.02-.85-3.04-1.13-1.86-.25-3.06-.81-1.77-.83,2,0-1.42-1.27-5.27-1.92-2.85-.5-3-.62-1.81-1.19,1.04-.5,2.13-2.38,1.85-3.15-.25-.65-.56-.58-2.1.46-2.94,1.98-5.67,5.23-7.19,8.65-.87,1.92-.58,2.11,3.9,2.31,3.67.15,3.73.15,2.79.65-.52.31-1.6.62-2.36.73-2.6.42-4.04,1.65-2.75,2.38.38.19.23.38-.71.85-1.04.5-1.12.6-.62.88.31.17,1.23.27,2.04.19,1.12-.08,1.63.04,2.19.54l.69.62-1.42.9c-.77.5-1.65,1.37-1.96,1.94-.31.56-1.37,1.9-2.38,2.98-1,1.1-1.85,2.21-1.85,2.48,0,.29-1.46,1.69-3.27,3.15-4.84,3.88-6.96,6.04-6.96,7.06,0,.56-.27,1.04-.77,1.35-1.5,1-2.29,2.13-1.46,2.13.19,0,.81-.19,1.38-.42Zm37.41-3.75c1.21-.17,2.61-.52,3.1-.83l.9-.54-3.08-1.54-1.54.62c-.85.35-2.04.81-2.61,1.04-2.36.88-2.67,2.1-.46,1.77.85-.12,2.5-.35,3.69-.52Zm-54.18-14.59c7.15-7.46,12.17-11.9,18.57-16.34,2.15-1.5,3.69-2.38,3.77-2.15.19.63,1.13.46,2.65-.52,1.73-1.1,2.61-2.21,4.77-6.15,2.27-4.08,3.11-5.09,6.36-7.59,1.52-1.19,3.75-2.92,4.98-3.9,1.75-1.4,2.17-1.61,2.04-1.06-.12.42-.04.69.19.69.73,0,4.15-1.46,4.27-1.83.19-.56-3.29-1.15-5.86-.98-1.98.12-2.67.35-5.13,1.67-5.77,3.13-9.92,6.48-17.88,14.44-5.71,5.73-10.23,9.57-12.5,10.65-.73.37-1.31,1.12-2.19,2.94-1.77,3.56-4.88,8.65-7.84,12.8-2.81,3.9-3.4,5.27-1.23,2.75.75-.85,3.02-3.31,5.04-5.42Zm71.37,35.11c8.57-1.81,9.52-1.92,15.53-2.19,6.73-.31,7.61-.46,11.65-2.38,1.31-.62,1.81-.73,2-.42.31.5,2.52-.71,6.83-3.73,1.75-1.23,4.25-2.83,5.52-3.52,1.94-1.06,2.54-1.23,3.46-1.06,1,.19,1.29.08,2.56-1.04,3.52-3.11,6.52-4.54,9.52-4.54.88,0,1.19.12,1.19.5,0,.33.17.46.46.35.9-.35.5.04-1.81,1.73-2.65,1.98-2.38,2.58.31.69,2.61-1.81,2.63-1.81,2.63-1.08,0,.42-.98,1.46-2.79,3-4.15,3.44-7.08,6.31-11.54,11.23l-3.96,4.29h-50.68l9.11-1.83Zm.08-65.29c.31-.08.81-.08,1.12,0s.08.13-.54.13-.88-.06-.58-.13Z"/>
  <path class="cls-4" d="m315.4,87.34c-1.4-.21-.67-.73,1.02-.73s2.58-.65,2.58-1.9c0-.58-.12-.65-.65-.5-.46.15-.81.04-1.12-.4-.29-.4-.98-.71-2-.85-1.83-.25-4.79-2.02-4.25-2.54.17-.17,1.12-.4,2.1-.48,1.65-.13,1.77-.19,2.11-1.23.23-.77.6-1.13,1.19-1.27.48-.12,1.23-.54,1.65-.96.46-.38,1.88-1.42,3.21-2.31,2.21-1.44,3.6-3,3.1-3.48-.5-.52-5.31-1.1-7.57-.9-2.61.23-7.15,1.19-9.04,1.92-1.94.75-1.38.1,1.29-1.5,3.6-2.13,10.54-4.11,14.36-4.11,1.5,0,6.48,1.15,7.08,1.65,1.15.96-.12,4.35-2.27,6.04l-.88.71.73.79.73.81-.75.62c-.4.33-.98.62-1.27.62s-.98.44-1.54,1c-.87.85-.98,1.12-.73,1.77.19.52.17,1.02-.06,1.46-.23.38-.27,1.31-.15,2.35.27,2.15-.12,2.9-1.65,3.35-1.15.31-5.38.38-7.21.1Z"/>
</svg>